HIERARCHY
ROOT hip
{
  OFFSET 0 0 0
  CHANNELS 6 Xposition Yposition Zposition Zrotation Yrotation Xrotation
  JOINT abdomen
  {
    OFFSET 0 20.6881 -0.73152
    CHANNELS 3 Zrotation Xrotation Yrotation
    JOINT chest
    {
      OFFSET 0 11.7043 -0.48768
      CHANNELS 3 Zrotation Xrotation Yrotation
      JOINT neck
      {
        OFFSET 0 22.1894 -2.19456
        CHANNELS 3 Zrotation Xrotation Yrotation
        JOINT head
        {
          OFFSET -0.24384 7.07133 1.2192
          CHANNELS 3 Zrotation Xrotation Yrotation
          JOINT leftEye
          {
            OFFSET 4.14528 8.04674 8.04672
            CHANNELS 3 Zrotation Xrotation Yrotation
            End Site
            {
              OFFSET 1 0 0
            }
          }
          JOINT rightEye
          {
            OFFSET -3.6576 8.04674 8.04672
            CHANNELS 3 Zrotation Xrotation Yrotation
            End Site
            {
              OFFSET 1 0 0
            }
          }
        }
      }
      JOINT rCollar
      {
        OFFSET -2.68224 19.2634 -4.8768
        CHANNELS 3 Zrotation Xrotation Yrotation
        JOINT rShldr
        {
          OFFSET -8.77824 -1.95073 1.46304
          CHANNELS 3 Zrotation Xrotation Yrotation
          JOINT rForeArm
          {
            OFFSET -28.1742 -1.7115 0.48768
            CHANNELS 3 Zrotation Xrotation Yrotation
            JOINT rHand
            {
              OFFSET -22.5879 0.773209 7.07136
              CHANNELS 3 Zrotation Xrotation Yrotation
              JOINT rThumb1
              {
                OFFSET -1.2192 -0.487915 3.41376
                CHANNELS 3 Zrotation Xrotation Yrotation
                JOINT rThumb2
                {
                  OFFSET -3.37035 -0.52449 3.41376
                  CHANNELS 3 Zrotation Xrotation Yrotation
                  End Site
                  {
                    OFFSET -1.78271 -1.18214 1.43049
                  }
                }
              }
              JOINT rIndex1
              {
                OFFSET -7.75947 0.938293 5.60832
                CHANNELS 3 Zrotation Xrotation Yrotation
                JOINT rIndex2
                {
                  OFFSET -2.54057 -0.884171 1.56538
                  CHANNELS 3 Zrotation Xrotation Yrotation
                  End Site
                  {
                    OFFSET -1.62519 -0.234802 1.16502
                  }
                }
              }
              JOINT rMid1
              {
                OFFSET -8.24714 1.18213 3.41376
                CHANNELS 3 Zrotation Xrotation Yrotation
                JOINT rMid2
                {
                  OFFSET -3.10165 -0.590103 1.0647
                  CHANNELS 3 Zrotation Xrotation Yrotation
                  End Site
                  {
                    OFFSET -2.48547 -0.328903 0.83742
                  }
                }
              }
              JOINT rRing1
              {
                OFFSET -8.82822 0.546677 1.51678
                CHANNELS 3 Zrotation Xrotation Yrotation
                JOINT rRing2
                {
                  OFFSET -2.60934 -0.819778 -0.0198488
                  CHANNELS 3 Zrotation Xrotation Yrotation
                  End Site
                  {
                    OFFSET -2.33842 -0.294052 0.168128
                  }
                }
              }
              JOINT rPinky1
              {
                OFFSET -8.27202 -0.0477905 -0.4584
                CHANNELS 3 Zrotation Xrotation Yrotation
                JOINT rPinky2
                {
                  OFFSET -1.82734 -0.647385 -0.700984
                  CHANNELS 3 Zrotation Xrotation Yrotation
                  End Site
                  {
                    OFFSET -1.69225 -0.51767 -0.607171
                  }
                }
              }
            }
          }
        }
      }
      JOINT lCollar
      {
        OFFSET 2.68224 19.2634 -4.8768
        CHANNELS 3 Zrotation Xrotation Yrotation
        JOINT lShldr
        {
          OFFSET 8.77824 -1.95073 1.46304
          CHANNELS 3 Zrotation Xrotation Yrotation
          JOINT lForeArm
          {
            OFFSET 28.1742 -1.7115 0.48768
            CHANNELS 3 Zrotation Xrotation Yrotation
            JOINT lHand
            {
              OFFSET 22.5879 0.773209 7.07136
              CHANNELS 3 Zrotation Xrotation Yrotation
              JOINT lThumb1
              {
                OFFSET 1.2192 -0.487915 3.41376
                CHANNELS 3 Zrotation Xrotation Yrotation
                JOINT lThumb2
                {
                  OFFSET 3.37035 -0.52449 3.41376
                  CHANNELS 3 Zrotation Xrotation Yrotation
                  End Site
                  {
                    OFFSET 1.78271 -1.18214 1.43049
                  }
                }
              }
              JOINT lIndex1
              {
                OFFSET 7.75947 0.938293 5.60832
                CHANNELS 3 Zrotation Xrotation Yrotation
                JOINT lIndex2
                {
                  OFFSET 2.54057 -0.884171 1.56538
                  CHANNELS 3 Zrotation Xrotation Yrotation
                  End Site
                  {
                    OFFSET 1.62519 -0.234802 1.16502
                  }
                }
              }
              JOINT lMid1
              {
                OFFSET 8.24714 1.18213 3.41376
                CHANNELS 3 Zrotation Xrotation Yrotation
                JOINT lMid2
                {
                  OFFSET 3.10165 -0.590103 1.0647
                  CHANNELS 3 Zrotation Xrotation Yrotation
                  End Site
                  {
                    OFFSET 2.48547 -0.328903 0.83742
                  }
                }
              }
              JOINT lRing1
              {
                OFFSET 8.82822 0.546677 1.51678
                CHANNELS 3 Zrotation Xrotation Yrotation
                JOINT lRing2
                {
                  OFFSET 2.60934 -0.819778 -0.0198488
                  CHANNELS 3 Zrotation Xrotation Yrotation
                  End Site
                  {
                    OFFSET 2.33842 -0.294052 0.168128
                  }
                }
              }
              JOINT lPinky1
              {
                OFFSET 8.27202 -0.0477905 -0.4584
                CHANNELS 3 Zrotation Xrotation Yrotation
                JOINT lPinky2
                {
                  OFFSET 1.82734 -0.647385 -0.700984
                  CHANNELS 3 Zrotation Xrotation Yrotation
                  End Site
                  {
                    OFFSET 1.69225 -0.51767 -0.607171
                  }
                }
              }
            }
          }
        }
      }
    }
  }
  JOINT rButtock
  {
    OFFSET -8.77824 4.35084 1.2192
    CHANNELS 3 Zrotation Xrotation Yrotation
    JOINT rThigh
    {
      OFFSET 0 -1.70687 -2.19456
      CHANNELS 3 Zrotation Xrotation Yrotation
      JOINT rShin
      {
        OFFSET 0 -36.8199 0.73152
        CHANNELS 3 Zrotation Xrotation Yrotation
        JOINT rFoot
        {
          OFFSET 0.73152 -45.1104 -5.12064
          CHANNELS 3 Zrotation Xrotation Yrotation
          End Site
          {
            OFFSET -1.1221 -3.69964 12.103
          }
        }
      }
    }
  }
  JOINT lButtock
  {
    OFFSET 8.77824 4.35084 1.2192
    CHANNELS 3 Zrotation Xrotation Yrotation
    JOINT lThigh
    {
      OFFSET 0 -1.70687 -2.19456
      CHANNELS 3 Zrotation Xrotation Yrotation
      JOINT lShin
      {
        OFFSET 0 -36.8199 0.73152
        CHANNELS 3 Zrotation Xrotation Yrotation
        JOINT lFoot
        {
          OFFSET -0.73152 -45.1104 -5.12064
          CHANNELS 3 Zrotation Xrotation Yrotation
          End Site
          {
            OFFSET 1.1221 -3.69964 12.103
          }
        }
      }
    }
  }
}
MOTION
Frames:	4
Frame Time:	0.03333
-0.19430000548515267 68.04239915318038 0.04209999871338261 3.0685997009277344 24.505800247192383 3.492499589920044 -9.821120262145996 13.089301109313965 2.326820135116577 3.0077402591705322 -8.823041915893555 0.6128260493278503 -7.18371057510376 16.002300262451172 -10.732999801635742 11.511799812316895 -24.900997161865234 -18.578500747680664 -0.0 0.0 -0.0 -0.0 0.0 -0.0 -4.1769898358277185e-14 1.2608799468654796e-14 3.4241099539089603e-13 37.31060028076172 23.980600357055664 22.863502502441406 -26.640501022338867 -25.20389747619629 59.60948944091797 -0.00012889500067103654 -0.09924720227718353 -0.013945898972451687 -3.105410026349453e-11 2.7405298030913627e-09 -2.8456998979464743e-09 -5.388890028656945e-11 4.7401398362012515e-09 -4.9187498518676875e-09 -3.104929854891303e-11 2.7405100411215244e-09 -2.845710111998301e-09 7.730909824371338 5.474879741668701 0.4173140823841095 -3.105550192006312e-11 2.7405298030913627e-09 -2.8456998979464743e-09 2.9055399894714355 0.9651829600334167 0.10290199518203735 -3.1042595577401855e-11 2.7405298030913627e-09 -2.8456998979464743e-09 10.27859878540039 0.73180091381073 0.025912316516041756 -3.105989770935125e-11 2.7405298030913627e-09 -2.8456998979464743e-09 2.221669912338257 -0.733487069606781 -0.208919957280159 -4.187889794606166e-14 1.2605299528516741e-14 3.421610054749752e-13 -58.76580047607422 65.38361358642578 -16.110002517700195 28.362600326538086 -37.63370132446289 -79.77410125732422 2.2077999114990234 -38.256103515625 6.361909866333008 -4.919459284380423e-10 -1.530309923225559e-08 -1.3861299885675749e-09 -8.096909809296449e-10 -2.569830037657539e-08 -2.402219978492326e-09 -4.919469831499157e-10 -1.530309923225559e-08 -1.3861299885675749e-09 -7.730909824371338 5.474879741668701 -0.4173140823841095 -4.919439855477492e-10 -1.530309923225559e-08 -1.3861299885675749e-09 -2.9055399894714355 0.9651829600334167 -0.10290199518203735 -4.919479823506379e-10 -1.530309923225559e-08 -1.3861299885675749e-09 -10.27859878540039 0.73180091381073 -0.025912316516041756 -4.919389340329872e-10 -1.530309923225559e-08 -1.3861399805747965e-09 -2.221669912338257 -0.733487069606781 0.208919957280159 -2.0321699480147914e-16 0.0 -3.8825099822884138e-19 -48.806400299072266 -60.3036003112793 -42.72959518432617 -2.5207598209381104 72.62469482421875 2.934849262237549 1.1663998365402222 -4.974589824676514 10.341399192810059 2.0321699480147914e-16 0.0 3.8825099822884138e-19 12.78749942779541 6.847099304199219 6.562989711761475 0.042532503604888916 40.29319763183594 -2.2793500423431396 19.253698348999023 -17.44660186767578 38.37220001220703
-0.4043999994286902 68.0256993406597 0.0907999978825673 3.1502997875213623 24.28440284729004 3.913299083709717 -9.739450454711914 13.406200408935547 2.2182703018188477 2.949740171432495 -8.975800514221191 0.5804638862609863 -7.02662992477417 15.79330062866211 -10.6628999710083 11.239400863647461 -25.111900329589844 -18.47249984741211 -0.0 0.0 -0.0 -0.0 0.0 -0.0 -3.047309786777773e-14 7.378289873603144e-14 -2.3358601836630244e-13 37.08659744262695 23.913799285888672 23.211400985717773 -26.680500030517578 -25.32400131225586 59.8018913269043 -0.0002817950153257698 -0.479682981967926 -0.0674155056476593 -9.537379913604482e-11 -1.6122500001714002e-09 8.017079777822289e-10 -1.6651498235820128e-10 -2.7952999914759857e-09 1.385299985834365e-09 -9.536329365067431e-11 -1.6122500001714002e-09 8.016970420854364e-10 7.730909824371338 5.474879741668701 0.4173140823841095 -9.537470119225233e-11 -1.612239897141876e-09 8.017069785815067e-10 2.9055399894714355 0.9651829600334167 0.10290199518203735 -9.536199607751428e-11 -1.612239897141876e-09 8.017079777822289e-10 10.27859878540039 0.73180091381073 0.025912316516041756 -9.537649142687954e-11 -1.6122500001714002e-09 8.017159713880062e-10 2.221669912338257 -0.733487069606781 -0.208919957280159 -3.047850193798121e-14 7.377150106069319e-14 -2.3367400137259964e-13 -54.83470153808594 64.70089721679688 -20.79669761657715 28.38810157775879 -37.24239730834961 -79.10639953613281 2.0309300422668457 -36.97110366821289 6.072280406951904 -4.0695899428122573e-10 -6.66811938998535e-09 -2.4198498760341636e-10 -6.940439334357507e-10 -1.1517899523028063e-08 -4.2970896285687843e-10 -4.0695799508050357e-10 -6.668110064111943e-09 -2.4199101056332495e-10 -7.730909824371338 5.474879741668701 -0.4173140823841095 -4.0695899428122573e-10 -6.668110064111943e-09 -2.4198498760341636e-10 -2.9055399894714355 0.9651829600334167 -0.10290199518203735 -4.0696096492709444e-10 -6.668110064111943e-09 -2.419870137604363e-10 -10.27859878540039 0.73180091381073 -0.025912316516041756 -4.069519998761706e-10 -6.668129604037176e-09 -2.420000033698244e-10 -2.221669912338257 -0.733487069606781 0.208919957280159 -2.0321699480147914e-16 0.0 -3.8825099822884138e-19 -48.991600036621094 -60.82960891723633 -42.95459747314453 -2.5741000175476074 72.88870239257812 2.9886696338653564 1.1175099611282349 -5.941859245300293 9.373779296875 2.0321699480147914e-16 0.0 3.8825099822884138e-19 12.676299095153809 6.749751091003418 6.565249443054199 0.03712509572505951 39.97810745239258 -2.2696900367736816 19.1321964263916 -17.252601623535156 38.42518997192383
-0.643200008037585 68.01309764164102 0.2828000038657843 3.3460001945495605 24.16600227355957 4.425400257110596 -9.626039505004883 13.831299781799316 1.9614801406860352 2.9283196926116943 -9.18021011352539 0.5083299279212952 -6.937380313873291 15.582799911499023 -10.563499450683594 11.165701866149902 -25.431303024291992 -18.26070213317871 -0.0 0.0 -0.0 -0.0 0.0 -0.0 2.9540600143178417e-15 -2.0051699152002014e-14 -1.45285991353869e-13 36.73359680175781 23.902099609375 23.631099700927734 -26.730100631713867 -25.475299835205078 60.042999267578125 -0.0006509509403258562 -0.6978930234909058 -0.09808769822120667 -1.0523999033340559e-10 -1.273449901084689e-09 6.325139856322437e-10 -1.8330399698118782e-10 -2.2086799056353357e-09 1.0932199590030223e-09 -1.0523099752690612e-10 -1.273460004114213e-09 6.32504937314593e-10 7.730909824371338 5.474879741668701 0.4173140823841095 -1.0524099647302165e-10 -1.273449901084689e-09 6.325149848329659e-10 2.9055399894714355 0.9651829600334167 0.10290199518203735 -1.0523200366652219e-10 -1.273449901084689e-09 6.325139856322437e-10 10.27859878540039 0.73180091381073 0.025912316516041756 -1.0524299487446598e-10 -1.273460004114213e-09 6.325240331506166e-10 2.221669912338257 -0.733487069606781 -0.208919957280159 2.9351999787142775e-15 -2.0065497318712787e-14 -1.4535898526513158e-13 -50.78300094604492 63.6840934753418 -25.798795700073242 28.407501220703125 -36.85680389404297 -78.45209503173828 1.9478697776794434 -36.324501037597656 5.931359767913818 -9.937229511480794e-11 -3.645300061805301e-09 1.2834899809632816e-10 -1.743230004791485e-10 -6.495899818048656e-09 2.148930061673937e-10 -9.937110162505647e-11 -3.6452900697980795e-09 1.2834600049416167e-10 -7.730909824371338 5.474879741668701 -0.4173140823841095 -9.937229511480794e-11 -3.6452900697980795e-09 1.28347998895606e-10 -2.9055399894714355 0.9651829600334167 -0.10290199518203735 -9.937610456756119e-11 -3.6452900697980795e-09 1.2834699969488383e-10 -10.27859878540039 0.73180091381073 -0.025912316516041756 -9.936768768925575e-11 -3.6453100538125227e-09 1.2833599460915224e-10 -2.221669912338257 -0.733487069606781 0.208919957280159 -2.0321699480147914e-16 0.0 -3.8825099822884138e-19 -49.24549865722656 -61.261905670166016 -43.35770034790039 -2.6433799266815186 73.22779846191406 3.0628795623779297 0.9769788980484009 -7.098280429840088 8.040999412536621 2.0321699480147914e-16 0.0 3.8825099822884138e-19 12.58810043334961 6.731979846954346 6.459429740905762 0.028529001399874687 39.49311065673828 -2.2552101612091064 18.93549919128418 -17.014202117919922 38.447998046875
-0.9031000184573831 68.0077974148451 0.5979000023320387 3.420299768447876 24.079896926879883 4.857000350952148 -9.476000785827637 14.364298820495605 1.5553297996520996 2.94284987449646 -9.436280250549316 0.3963269591331482 -6.91562032699585 15.370598793029785 -10.435198783874512 11.293701171875 -25.859600067138672 -17.942096710205078 -0.0 0.0 -0.0 -0.0 0.0 -0.0 5.851159942844852e-14 -2.6889498657214905e-13 6.073109680079791e-13 36.249900817871094 23.944299697875977 24.123098373413086 -26.788700103759766 -25.656299591064453 60.33359909057617 -0.0007153159822337329 -0.7538770437240601 -0.10595699399709702 -6.065389857035086e-11 3.756909894292448e-09 -3.3532798759949856e-09 -1.0425799806812464e-10 6.499999649633992e-09 -5.79500003539124e-09 -6.065349611450443e-11 3.756899680240622e-09 -3.353289868002207e-09 7.730909824371338 5.474879741668701 0.4173140823841095 -6.065559859935732e-11 3.756909894292448e-09 -3.3532798759949856e-09 2.9055399894714355 0.9651829600334167 0.10290199518203735 -6.065110219610759e-11 3.756899680240622e-09 -3.3532798759949856e-09 10.27859878540039 0.73180091381073 0.025912316516041756 -6.066069868637669e-11 3.756909894292448e-09 -3.353269661943159e-09 2.221669912338257 -0.733487069606781 -0.208919957280159 5.836210150138993e-14 -2.689059912241998e-13 6.071089811432451e-13 -46.79650115966797 62.295494079589844 -30.938396453857422 28.421594619750977 -36.477203369140625 -77.81010437011719 1.9465199708938599 -36.31729507446289 5.929539680480957 4.3081496703401e-10 -6.234669669424875e-09 -2.7512897515791224e-10 7.494719844736153e-10 -1.0632399849441754e-08 -4.684139742749949e-10 4.3081396783328785e-10 -6.2346798834767014e-09 -2.7511998235141277e-10 -7.730909824371338 5.474879741668701 -0.4173140823841095 4.3081496703401e-10 -6.2346798834767014e-09 -2.751319727600787e-10 -2.9055399894714355 0.9651829600334167 -0.10290199518203735 4.308080003845305e-10 -6.234669669424875e-09 -2.751319727600787e-10 -10.27859878540039 0.73180091381073 -0.025912316516041756 4.308129686325657e-10 -6.234669669424875e-09 -2.751319727600787e-10 -2.221669912338257 -0.733487069606781 0.208919957280159 -2.0321699480147914e-16 0.0 -3.8825099822884138e-19 -49.57210159301758 -61.598304748535156 -43.940799713134766 -2.7309296131134033 73.6422119140625 3.1597697734832764 0.709585964679718 -8.4441499710083 6.339020252227783 2.0321699480147914e-16 0.0 3.8825099822884138e-19 12.523099899291992 6.793779373168945 6.245460033416748 0.01706559956073761 38.83829879760742 -2.2362797260284424 18.66390037536621 -16.731197357177734 38.44110107421875
